<svg xmlns="http://www.w3.org/2000/svg" viewBox="0 0 189.92 189.92"><style>.st0{fill:#0278ae}.st1{fill:#fff}</style><g id="Circles"><circle cx="94.96" cy="94.96" r="92.13" class="st0"/><circle cx="94.96" cy="94.96" r="86.46" class="st1"/><circle cx="94.96" cy="94.96" r="85.04" class="st0"/></g><g id="Text"><path d="M59.16 44.08l-2 1.38-6.61-9.59 5.49-3.8 1.15 1.67-3.49 2.41 1.71 2.47 3.25-2.25 1.14 1.66-3.25 2.25 2.61 3.8zM71.33 37.29l-6.05 2.9-5.03-10.51 6.05-2.9.87 1.83-3.82 1.83 1.1 2.31 3.56-1.71.87 1.83-3.56 1.71 1.3 2.71 3.82-1.83.89 1.83zM81.04 34.24l-1.56-2.44-4.09 1.14-.07 2.9-2.56.72.81-12.37 2.91-.81 7.13 10.15-2.57.71zm-2.68-4.28c-1.43-2.21-2.24-3.46-2.42-3.75s-.32-.52-.41-.7c.01.7-.02 2.46-.09 5.26l2.92-.81zM89.66 32.97l-2.46.26-1.01-9.54-3.15.33-.22-2.04 8.75-.91.22 2.04-3.15.33 1.02 9.53zM105.56 21.7l-.59 7.52c-.07.86-.32 1.59-.75 2.21-.44.62-1.03 1.07-1.78 1.36s-1.62.39-2.61.32c-1.49-.12-2.62-.59-3.39-1.42s-1.1-1.91-.99-3.24l.59-7.48 2.45.19-.56 7.11c-.07.9.06 1.57.38 2.01.33.45.91.7 1.74.77.81.06 1.41-.1 1.8-.49s.63-1.04.7-1.94l.56-7.09 2.45.17zM111.52 30.34l-1.2 4.31-2.38-.66 3.14-11.22 3.27.91c1.52.43 2.58 1.02 3.15 1.78s.71 1.7.39 2.83c-.18.66-.53 1.2-1.04 1.61-.51.41-1.13.67-1.88.78l1.93 5.81-2.64-.74-1.48-5.05-1.26-.36zm.54-1.93l.77.21c.75.21 1.34.24 1.77.09s.72-.49.87-1.03c.15-.53.07-.96-.23-1.29-.3-.33-.84-.6-1.61-.81l-.72-.2-.85 3.03zM124.89 40.29l-6.06-2.88 4.99-10.53 6.06 2.88-.87 1.83-3.83-1.82-1.1 2.31 3.56 1.69-.87 1.83-3.56-1.69-1.29 2.71 3.83 1.82-.86 1.85zM138.85 42.59c-1.12 1.56-2.42 2.43-3.9 2.62-1.48.19-3.06-.32-4.73-1.52l-2.68-1.93 6.8-9.46 2.97 2.14c1.54 1.11 2.45 2.38 2.72 3.81.26 1.43-.13 2.88-1.18 4.34zm-2.12-1.45c1.46-2.03 1.29-3.69-.5-4.98l-1.07-.77-4.43 6.16.86.62c1.94 1.39 3.65 1.05 5.14-1.03z" class="st1"/><g><path d="M57.46 149.26c-.78.98-1.68 1.49-2.71 1.52-1.03.03-2.11-.4-3.24-1.3l-.83-.66-2.58 3.24-1.93-1.54 7.25-9.12 2.91 2.32c1.11.88 1.76 1.79 1.96 2.72.2.94-.08 1.88-.83 2.82zm-5.52-2.02l.64.51c.59.47 1.13.71 1.61.71s.9-.22 1.26-.67c.36-.45.5-.89.43-1.3-.08-.41-.38-.83-.91-1.25l-.88-.7-2.15 2.7zM70.42 152.34l-3.49 6.68c-.4.76-.92 1.34-1.56 1.74-.64.4-1.36.58-2.17.55-.81-.03-1.65-.28-2.53-.74-1.33-.69-2.18-1.57-2.56-2.64-.38-1.06-.26-2.19.36-3.37l3.48-6.65 2.18 1.14-3.3 6.32c-.42.8-.56 1.46-.44 2 .13.54.56 1 1.3 1.39.72.37 1.33.46 1.85.25s.99-.71 1.4-1.51l3.3-6.31 2.18 1.15zM73.57 153.53l3.48 1.02c1.59.46 2.67 1.03 3.25 1.69s.73 1.48.44 2.47c-.2.67-.51 1.17-.95 1.51-.44.34-.93.47-1.48.41l-.02.08c.66.37 1.09.81 1.27 1.34.19.53.17 1.15-.04 1.87-.3 1.02-.9 1.71-1.8 2.06-.9.35-1.99.35-3.25-.02l-4.18-1.23 3.28-11.2zm.52 7.01l-.85 2.91 1.54.45c.65.19 1.17.21 1.56.05s.65-.5.8-1.01c.27-.93-.25-1.59-1.58-1.97l-1.47-.43zm.55-1.89l1.38.4c.64.19 1.14.22 1.48.11.35-.11.59-.4.72-.86.13-.43.06-.78-.2-1.06s-.73-.52-1.41-.71l-1.25-.37-.72 2.49zM83.48 168l1.31-11.58 2.45.28-1.08 9.55 4.7.53-.23 2.03-7.15-.81zM99.45 168.73l-5.3.13-.03-1.4 1.4-.69-.19-7.54-1.43-.62-.03-1.4 5.3-.13.03 1.4-1.4.69.19 7.54 1.43.62.03 1.4zM110.11 164.06c.17 1.04-.07 1.92-.72 2.64-.65.72-1.64 1.19-2.97 1.4-1.23.2-2.35.14-3.37-.17l-.37-2.27c.83.22 1.53.36 2.09.41s1.06.05 1.51-.03c.54-.09.93-.25 1.18-.51s.35-.58.28-.98c-.04-.23-.13-.42-.29-.57s-.37-.29-.64-.42-.81-.3-1.62-.54c-.76-.22-1.33-.45-1.73-.7-.4-.25-.74-.56-1.01-.93s-.46-.82-.54-1.37c-.16-1.02.05-1.87.65-2.57s1.5-1.14 2.72-1.33c.6-.1 1.18-.12 1.75-.06.57.05 1.17.16 1.8.32l-.48 2.02c-.65-.15-1.19-.25-1.61-.28-.42-.04-.82-.02-1.21.04-.46.07-.8.24-1.01.49s-.29.56-.23.9c.03.21.11.39.24.54.13.14.31.27.55.39s.8.3 1.68.56c1.16.34 1.98.74 2.46 1.19s.77 1.08.89 1.83zM124.31 162.92l-2.32.83-1.69-4.74-4.34 1.55 1.69 4.73-2.33.83-3.92-10.97 2.33-.83 1.54 4.3 4.34-1.55-1.54-4.3 2.32-.83 3.92 10.98zM135.18 157.02l-5.8 3.38-5.86-10.07 5.8-3.38 1.02 1.75-3.66 2.13 1.29 2.21 3.41-1.98 1.02 1.75-3.41 1.98 1.51 2.6 3.66-2.13 1.02 1.76zM138.37 149.12l2.87 3.43-1.89 1.59-7.48-8.93 2.6-2.18c1.21-1.02 2.3-1.55 3.25-1.59.95-.05 1.8.38 2.56 1.28.44.53.69 1.11.74 1.76.05.65-.09 1.32-.42 1.99l5.89 1.69-2.1 1.76-5-1.64-1.02.84zm-1.29-1.54l.61-.51c.6-.5.96-.97 1.08-1.41.12-.44 0-.87-.36-1.3-.35-.42-.75-.6-1.19-.54s-.97.35-1.58.86l-.57.48 2.01 2.42z" class="st1"/></g></g><g id="Logo"><path d="M79.5 57.99c-.14.1-22.43 16.31-22.43 16.31h-.77s22.69-16.49 22.94-16.67c.22-.16.48.2.26.36M81.7 61.08c-.14.1-18.19 13.21-18.19 13.21h-.72s18.4-13.39 18.65-13.58c.22-.15.48.21.26.37M83.93 64.15c-.14.1-13.96 10.15-13.96 10.15h-.76s14.21-10.33 14.46-10.51c.22-.16.48.2.26.36M86.16 67.22c-.14.1-9.74 7.08-9.74 7.08h-.77s10-7.26 10.25-7.44c.22-.16.48.2.26.36M88.39 70.29c-.14.1-5.52 4.01-5.52 4.01h-.77l6.03-4.37c.22-.16.48.2.26.36M58.61 91.93s-22.89 16.63-23.14 16.81c-.22.16-.48-.2-.26-.36.14-.1 22.65-16.45 22.65-16.45M52.16 91.93s-18.67 13.56-18.92 13.74c-.22.16-.48-.2-.26-.36.14-.1 18.41-13.38 18.41-13.38M45.7 91.93s-14.44 10.49-14.69 10.68c-.22.16-.48-.2-.26-.36.14-.1 14.18-10.31 14.18-10.31M32.79 91.93s-6 4.36-6.25 4.54c-.22.16-.48-.2-.26-.36.14-.1 5.73-4.18 5.73-4.18M39.25 91.93s-10.22 7.43-10.47 7.61c-.22.16-.48-.2-.26-.36.14-.1 9.96-7.25 9.96-7.25M31.81 88.92c.44 0 .86-.06 1.28-.18.42-.12.79-.29 1.12-.53.33-.23.6-.52.8-.85.2-.34.31-.73.31-1.17 0-.53-.14-1.01-.41-1.42-.28-.41-.64-.8-1.09-1.15-.45-.35-.96-.68-1.53-.98-.57-.3-1.16-.61-1.76-.92-.6-.31-1.19-.64-1.76-.97a8.54 8.54 0 0 1-1.53-1.13c-.45-.41-.81-.88-1.09-1.39-.28-.52-.41-1.11-.41-1.78s.12-1.29.37-1.86c.25-.57.62-1.07 1.1-1.49.48-.42 1.08-.75 1.79-.99.71-.23 1.52-.35 2.44-.35.83 0 1.57.09 2.22.27.65.18 1.22.44 1.71.77.49.34.91.76 1.25 1.27.34.51.62 1.09.83 1.73l-1.51.69a7.07 7.07 0 0 0-.67-1.47c-.27-.44-.6-.82-.97-1.13-.38-.32-.81-.56-1.31-.73a5.09 5.09 0 0 0-1.67-.26c-.55 0-1.03.08-1.45.23-.41.16-.76.36-1.03.6-.27.25-.48.53-.61.84-.14.32-.21.63-.21.95 0 .46.14.89.43 1.27.28.38.66.74 1.12 1.08.46.34.99.67 1.58.98.59.32 1.19.64 1.81.96.61.33 1.22.66 1.81 1.01.59.35 1.12.74 1.58 1.15.46.42.84.88 1.12 1.37.28.5.43 1.05.43 1.67 0 .69-.13 1.35-.39 1.96-.26.61-.66 1.14-1.18 1.59-.53.45-1.18.81-1.96 1.07s-1.7.39-2.74.39c-.84 0-1.59-.09-2.25-.28-.66-.19-1.25-.46-1.76-.81a5.14 5.14 0 0 1-1.3-1.29c-.36-.51-.66-1.08-.89-1.72l1.59-.65c.18.57.42 1.08.73 1.53.31.45.67.83 1.09 1.14.41.31.87.55 1.38.71.48.19 1.02.27 1.59.27M46.26 89.92c-.88 0-1.71-.17-2.48-.52s-1.45-.82-2.02-1.43a6.833 6.833 0 0 1-1.84-4.72c0-1.01.18-1.97.55-2.86.36-.89.87-1.67 1.5-2.34.64-.67 1.38-1.19 2.23-1.58.85-.39 1.76-.58 2.72-.58.76 0 1.45.08 2.09.25.64.17 1.18.39 1.64.67.46.29.82.62 1.07 1.01.26.39.39.81.39 1.27 0 .21-.05.4-.15.58-.1.18-.24.34-.41.47-.17.13-.36.24-.57.31-.21.08-.43.11-.64.11-.24 0-.46-.04-.65-.13-.2-.08-.36-.2-.5-.34s-.24-.3-.31-.47c-.07-.17-.11-.35-.11-.54 0-.31-.03-.6-.1-.87s-.18-.5-.35-.7c-.17-.2-.4-.35-.69-.46-.29-.11-.66-.17-1.11-.17-.61 0-1.16.12-1.64.37s-.89.58-1.22 1c-.33.42-.59.91-.77 1.47-.18.56-.27 1.16-.27 1.8 0 .85.11 1.67.33 2.44.22.77.54 1.44.95 2.02.41.58.91 1.04 1.48 1.37.57.34 1.22.51 1.93.51.62 0 1.17-.1 1.63-.29.46-.2.86-.46 1.2-.79.34-.33.63-.72.87-1.16.24-.44.46-.91.65-1.41l.81.32c-.23.85-.54 1.6-.92 2.27-.38.67-.84 1.23-1.36 1.7a5.6 5.6 0 0 1-1.77 1.06c-.67.24-1.38.36-2.16.36M60.95 89.92c-.95 0-1.83-.18-2.63-.54-.8-.36-1.49-.85-2.08-1.47a6.695 6.695 0 0 1-1.36-2.18c-.33-.83-.49-1.72-.49-2.66 0-1 .16-1.93.49-2.8.33-.87.78-1.63 1.36-2.28a6.21 6.21 0 0 1 2.08-1.53c.8-.37 1.68-.56 2.63-.56.94 0 1.81.17 2.61.51.8.34 1.49.81 2.07 1.41.59.6 1.04 1.3 1.37 2.11.33.81.49 1.67.49 2.58 0 1.02-.16 1.98-.49 2.88-.33.9-.78 1.68-1.37 2.36-.59.67-1.28 1.2-2.07 1.59-.8.38-1.67.58-2.61.58m.47-1c.48 0 .93-.13 1.33-.41.41-.27.75-.64 1.04-1.09.29-.46.52-.99.68-1.6.16-.61.25-1.25.25-1.93 0-.97-.08-1.88-.23-2.74-.16-.85-.4-1.6-.75-2.23-.34-.63-.79-1.13-1.35-1.5-.56-.36-1.24-.55-2.04-.55-.42 0-.82.13-1.2.39s-.73.62-1.02 1.06c-.29.45-.53.97-.71 1.57-.18.61-.26 1.25-.26 1.92 0 .98.1 1.9.29 2.76.19.86.47 1.61.83 2.26.36.64.81 1.15 1.34 1.51.52.39 1.12.58 1.8.58M70.44 76.14h2.67v2.55c.27-.37.55-.73.85-1.07.3-.34.61-.64.93-.9a4.4 4.4 0 0 1 1-.61c.34-.15.7-.23 1.06-.23.29 0 .57.05.82.13.25.09.47.21.66.35.19.15.33.32.44.51.11.2.16.4.16.61 0 .44-.14.77-.41.99-.27.22-.65.33-1.13.33-.3 0-.54-.03-.73-.09-.18-.06-.35-.13-.49-.21-.15-.08-.29-.15-.44-.21-.15-.06-.34-.09-.57-.09-.18 0-.36.05-.53.15-.18.1-.36.25-.53.43-.18.19-.36.41-.54.67-.18.26-.37.54-.55.84v9.33h-2.67V76.14zM86.44 89.92c-.87 0-1.69-.17-2.46-.51a6.32 6.32 0 0 1-2.01-1.4 6.551 6.551 0 0 1-1.35-2.08c-.33-.79-.5-1.64-.5-2.54 0-1.08.15-2.08.45-3 .3-.92.73-1.71 1.29-2.38a5.99 5.99 0 0 1 2-1.57c.78-.38 1.64-.57 2.6-.57a5.691 5.691 0 0 1 4.13 1.72c.5.52.89 1.13 1.17 1.82.28.69.42 1.41.42 2.15h-9.61c0 .91.11 1.75.34 2.52.23.77.54 1.43.94 2 .4.56.88 1 1.44 1.31.56.32 1.17.47 1.83.47.56 0 1.1-.09 1.61-.28.51-.19.97-.43 1.39-.74.42-.31.77-.66 1.07-1.05.29-.4.5-.8.62-1.22l.73.35c-.19.69-.49 1.33-.89 1.94-.41.61-.89 1.14-1.44 1.59-.55.45-1.15.81-1.8 1.07-.65.27-1.3.4-1.97.4M89 80.48c0-.51-.09-.98-.26-1.42-.17-.44-.41-.82-.71-1.15-.3-.32-.65-.58-1.06-.76-.4-.18-.84-.27-1.3-.27-.38 0-.75.09-1.1.27-.35.18-.67.43-.95.75-.28.32-.51.7-.69 1.14-.18.44-.29.91-.33 1.42l6.4.02zM67.72 102.38v1.12h-9.21v6.25h6.17v1.13h-6.17v7.84h9.21v1.13H55.58v-17.47zM69.71 119.85h-1.47l5.65-6.89-4.78-6.57h3.15l3.31 4.52 3.7-4.52h1.47l-4.49 5.45 5.8 8.01h-3.17l-4.3-5.95zM88.53 120.15c-.88 0-1.71-.17-2.48-.52a6.29 6.29 0 0 1-2.02-1.43 6.833 6.833 0 0 1-1.84-4.72c0-1.01.18-1.97.55-2.86.36-.89.87-1.67 1.5-2.34.64-.67 1.38-1.19 2.23-1.58.85-.39 1.76-.58 2.72-.58.76 0 1.45.08 2.09.25.64.17 1.18.39 1.64.67.46.29.82.62 1.07 1.01.26.39.39.81.39 1.27 0 .21-.05.4-.15.58-.1.18-.24.34-.41.47-.17.13-.36.24-.57.31-.21.08-.43.11-.64.11-.24 0-.46-.04-.65-.13-.2-.08-.36-.2-.5-.34s-.24-.3-.31-.47c-.07-.17-.11-.35-.11-.54 0-.31-.03-.6-.1-.87s-.18-.5-.35-.7c-.17-.2-.4-.35-.69-.46-.29-.11-.66-.17-1.11-.17-.61 0-1.16.12-1.64.37s-.89.58-1.22 1c-.33.42-.59.91-.77 1.47-.18.56-.27 1.16-.27 1.8 0 .85.11 1.67.33 2.44.22.77.54 1.44.95 2.02.41.58.91 1.04 1.48 1.37.57.34 1.22.51 1.93.51.62 0 1.17-.1 1.63-.29.46-.2.86-.46 1.2-.79.34-.33.63-.72.87-1.16.24-.44.46-.91.65-1.41l.81.32c-.23.85-.54 1.6-.92 2.27-.38.67-.84 1.23-1.36 1.7a5.6 5.6 0 0 1-1.77 1.06c-.67.23-1.38.36-2.16.36M99.9 108.84c.81-.92 1.65-1.6 2.53-2.06.88-.45 1.77-.68 2.69-.68.47 0 .91.11 1.32.32.41.21.77.5 1.07.87.31.37.55.8.73 1.29.18.5.27 1.03.27 1.59v9.68h-2.68v-9.22c0-.89-.2-1.56-.59-2.02-.4-.46-.91-.69-1.55-.69-.58 0-1.2.18-1.87.53-.67.36-1.3.83-1.91 1.41v9.98h-2.68v-19.6l1.91-.77h.77v9.37zM121.57 119.85h-2.68v-1.84c-.31.24-.62.49-.93.74-.31.25-.64.48-.99.69a6 6 0 0 1-1.18.51c-.43.13-.93.2-1.5.2-.53 0-1.01-.09-1.44-.26-.42-.17-.79-.41-1.09-.71-.3-.3-.53-.65-.69-1.06-.16-.41-.24-.85-.24-1.33 0-.58.12-1.1.35-1.57.23-.47.54-.88.94-1.25.4-.36.86-.69 1.39-.97.53-.28 1.1-.54 1.7-.76.6-.22 1.21-.42 1.84-.6.63-.18 1.24-.34 1.85-.49v-.84c0-.61-.06-1.13-.18-1.56-.12-.42-.29-.76-.52-1.02-.23-.26-.5-.44-.83-.55-.32-.11-.69-.17-1.09-.17-.45 0-.82.06-1.11.17-.28.12-.51.27-.67.47-.16.2-.27.42-.33.66-.06.25-.09.49-.09.74 0 .23-.02.46-.05.67-.04.22-.1.41-.21.57-.1.17-.24.3-.41.39-.17.1-.39.15-.66.15-.42 0-.76-.15-1.01-.45-.26-.3-.39-.67-.39-1.13 0-.44.15-.86.44-1.25.29-.39.69-.72 1.18-1s1.07-.5 1.73-.66a8.78 8.78 0 0 1 2.08-.24c.88 0 1.63.09 2.24.25.61.17 1.1.41 1.48.72.38.31.65.69.82 1.13.17.44.25.93.25 1.47v10.18zm-2.69-7.85c-.38.13-.78.27-1.19.42-.41.16-.82.33-1.22.53s-.78.41-1.13.64c-.36.23-.67.48-.94.74-.27.26-.49.54-.65.83-.16.29-.24.59-.24.91 0 .33.06.64.18.93.12.29.28.55.49.77.2.22.44.4.69.53.26.13.53.19.81.19.3 0 .59-.04.86-.11s.54-.18.79-.31c.26-.13.51-.29.77-.47.25-.18.51-.37.78-.57V112zM125.13 106.37h2.68v2.47c.81-.92 1.65-1.6 2.53-2.06.88-.45 1.77-.68 2.69-.68.47 0 .91.11 1.32.32.41.21.77.5 1.07.87.31.37.55.8.73 1.29.18.5.27 1.03.27 1.59v9.68h-2.68v-9.22c0-.89-.2-1.56-.59-2.02-.4-.46-.91-.69-1.54-.69-.28 0-.59.05-.9.14-.32.09-.64.23-.97.39-.33.17-.66.37-.98.61-.32.24-.64.51-.94.8v9.98h-2.68v-13.47zM152.88 107.08v1.12h-2.56c.26.37.47.78.63 1.23.16.46.25.91.25 1.35 0 .7-.15 1.34-.46 1.91-.31.57-.74 1.07-1.29 1.48-.56.41-1.22.73-1.98.96-.76.23-1.61.34-2.52.34-.34 0-.69-.03-1.04-.09a5.67 5.67 0 0 1-.92-.22c-.26.21-.48.45-.65.73-.18.28-.27.56-.27.85 0 .26.15.47.45.64.3.17.71.26 1.25.28l4.99.21c.8.04 1.47.13 2 .29.53.16.95.36 1.27.62.32.26.54.57.67.92.13.36.2.75.2 1.19 0 .78-.18 1.49-.55 2.13-.36.64-.89 1.18-1.58 1.62-.69.44-1.53.79-2.52 1.03s-2.1.37-3.35.37c-2.23 0-3.9-.25-5-.75s-1.65-1.17-1.65-2c0-.36.09-.72.28-1.06.19-.34.42-.67.71-.98.29-.31.61-.61.96-.9.35-.29.7-.57 1.03-.83-.5-.16-.91-.38-1.25-.65-.33-.28-.5-.61-.5-.99 0-.27.07-.54.21-.83.14-.29.34-.57.59-.83.25-.27.54-.51.87-.74.33-.23.69-.41 1.06-.54-.92-.39-1.63-.93-2.14-1.62-.51-.69-.77-1.48-.77-2.37 0-.67.15-1.29.46-1.88.31-.59.73-1.1 1.26-1.54.53-.44 1.16-.79 1.88-1.04s1.49-.38 2.32-.38a9.388 9.388 0 0 1 2.29.29c.34.09.65.19.91.31s.47.24.61.37h3.85zm-10.83 12.67c-.4.29-.71.65-.91 1.08-.21.43-.31.83-.31 1.2 0 .3.11.59.32.87.21.28.53.52.95.73.42.21.95.38 1.59.5.64.12 1.38.19 2.22.19.9 0 1.7-.07 2.41-.21s1.31-.33 1.8-.57.87-.5 1.13-.79c.26-.29.39-.58.39-.87 0-.6-.3-1.03-.89-1.31-.6-.28-1.41-.41-2.46-.41-.64 0-1.29-.02-1.95-.05-.66-.03-1.27-.07-1.85-.11-.57-.04-1.08-.08-1.51-.13-.43-.05-.74-.09-.93-.12m3.34-4.97c.38 0 .75-.09 1.09-.26.35-.17.65-.41.92-.71s.48-.65.64-1.05c.16-.4.24-.83.24-1.29 0-.66-.09-1.27-.27-1.83-.18-.56-.42-1.06-.73-1.47-.31-.42-.67-.75-1.07-.99a2.56 2.56 0 0 0-1.31-.36c-.45 0-.85.09-1.17.28-.33.19-.6.45-.81.77-.21.33-.37.71-.47 1.15-.1.44-.15.92-.15 1.43 0 .61.08 1.17.23 1.7.15.53.36.99.63 1.37.27.39.6.69.97.91.38.24.8.35 1.26.35M160.93 120.15c-.87 0-1.69-.17-2.46-.51a6.32 6.32 0 0 1-2.01-1.4 6.551 6.551 0 0 1-1.35-2.08c-.33-.79-.5-1.64-.5-2.54 0-1.08.15-2.08.45-3 .3-.92.73-1.71 1.29-2.38a6.09 6.09 0 0 1 2-1.57c.78-.38 1.64-.57 2.6-.57a5.691 5.691 0 0 1 4.13 1.72c.5.52.89 1.13 1.17 1.82.28.69.42 1.41.42 2.15h-9.61c0 .91.11 1.75.34 2.52.23.77.54 1.43.94 2 .4.56.88 1 1.44 1.31.56.32 1.17.47 1.83.47.56 0 1.1-.09 1.61-.28.51-.19.97-.43 1.39-.74.42-.31.77-.66 1.07-1.05.29-.4.5-.8.62-1.22l.73.35c-.19.69-.49 1.33-.89 1.94-.41.61-.89 1.14-1.44 1.59-.55.45-1.15.81-1.8 1.07-.64.26-1.3.4-1.97.4m2.56-9.44c0-.51-.09-.98-.26-1.42-.17-.44-.41-.82-.71-1.15-.3-.32-.65-.58-1.06-.76-.4-.18-.84-.27-1.3-.27-.38 0-.75.09-1.1.27-.35.18-.67.43-.95.75-.28.32-.51.7-.69 1.14-.18.44-.29.91-.33 1.42l6.4.02z" class="st1"/></g></svg>