<svg xmlns="http://www.w3.org/2000/svg" viewBox="0 0 867.13 191.7"><defs><style>.cls-1{fill:#003057;}</style></defs><title>Asset 1</title><g id="Layer_2" data-name="Layer 2"><g id="Layer_2-2" data-name="Layer 2"><path class="cls-1" d="M728,191.7"/><path class="cls-1" d="M16.43,33.34c-.72-3.12-4.32-5.76-7.44-5.76H0V2.39H78.16V27.58H61.52l20.15,89h.48L110.21,2.39h33.1l27.82,114.17h.48l17.51-72c2.88-11.51,1.2-17-8.64-17h-6.72V2.39h69V27.58h-6.93c-3.6,0-7.91,3.12-9.11,7.2l-35,135.51h-47l-23.5-95.94h-.48L97.25,170.28h-47Z"/><path class="cls-1" d="M234.94,87.3C234.94,31.42,266.6.24,318.4.24A161.1,161.1,0,0,1,345.74,2.4h32.14V57.56H348.14L343.58,33.1A61.55,61.55,0,0,0,323.2,30c-23.27,0-39.82,15.59-39.82,55.4,0,38.13,11.27,58.52,35.5,58.52,8.39,0,13-.72,17.75-2.16v-29.5H322.24V87.78h70v24.7h-4.8c-3.36,0-6.72,4.32-6.72,7.19v50.61H357.49s-2.16-5-6.72-5c-8.63,4.32-20.15,7.19-34.78,7.19-52.53,0-81.07-30-81.07-85.14"/><path class="cls-1" d="M407.15,107.45V34.53c0-2.88-3.36-7-6.72-7h-7.92V2.39h78.43V27.58H453v82.51c0,25.42,10.31,33.34,29.26,33.34,19.19,0,29.5-7.92,29.5-33.34V27.58H494V2.39h66.2V27.58h-7.68c-3.12,0-6.72,4.08-6.72,7v72.91c0,42.45-21.83,64.76-68.59,64.76-46.05,0-70-22.3-70-64.76"/><path class="cls-1" d="M672.64,115a22.26,22.26,0,1,1,9.45-42.38,15.53,15.53,0,0,0-4.78-.82,15.75,15.75,0,1,0,14.52,9.72,22,22,0,0,1,3.07,11.22A22.28,22.28,0,0,1,672.64,115M802.44,87.53a15.65,15.65,0,0,0-.36-3.3,22.33,22.33,0,1,1-12.24-12.11,15.72,15.72,0,1,0,12.6,15.41m32.7-38.06L821.23,61l0,.06A49.9,49.9,0,0,1,748.44,129V108.51a36.67,36.67,0,1,0,48-49.27l.5-.24a91.49,91.49,0,0,0,12-6.82L867.13,4.31C853.36.26,834.76-1.23,818.06,1.12a180.5,180.5,0,0,0-40.81,11.13c-17.74-7.52-28.66-9.79-50.47-10-21.8.22-32.72,2.49-50.47,10A180.42,180.42,0,0,0,635.5,1.12c-16.7-2.36-35.29-.86-49.08,3.19l58.19,47.87a91.49,91.49,0,0,0,12,6.82l.8.38a36.67,36.67,0,1,0,47.39,50.92V75.19l.07.12c0-.19-.05-.37-.06-.57s0-.08,0-.12a11,11,0,0,1,21.93,0s0,.08,0,.12h0v85.08L705.58,139l-4.14-4.26c-6.9,6.71-15,8-27.59,8a50,50,0,0,1-49.93-49.93c0-13.49,2.54-22.13,9.84-30.27L619.91,50.93c-9.63,11.26-14,24.33-14,41.82a68,68,0,0,0,68,68,87.59,87.59,0,0,0,17.91-1.47c9.1,8.23,36.23,32.45,36.23,32.45l37.08-33.41A67.91,67.91,0,0,0,835.17,49.51l0,0"/><path class="cls-1" d="M834.93,162.66a9.41,9.41,0,1,1,9.42,9.49A9.39,9.39,0,0,1,834.93,162.66Zm2.05,0a7.36,7.36,0,1,0,7.36-7.43A7.32,7.32,0,0,0,837,162.66Zm11.73,4.87h-2.24l-2.29-3.92h-1.72v3.92H840.4v-9.85h4.78c2.27,0,3.82.41,3.82,3a2.6,2.6,0,0,1-2.67,2.91Zm-3.48-5.69c1.1,0,1.77-.23,1.77-1.31s-1.32-1.07-2.27-1.07h-2.27v2.39Z"/></g></g></svg>