<svg xmlns="http://www.w3.org/2000/svg" width="143" height="40" viewBox="0 0 143 40">
    <g fill="#BA0C2F" fill-rule="evenodd">
        <path d="M39.973 25.427h93.083l1.167-3.26h-93.07zM58.924 31.778c.126-.313.224-.556.295-.727.071-.17.138-.327.198-.464h-1.12a189.96 189.96 0 0 1-1.227 3.204c-.387.975-.736 1.826-1.046 2.55h1.118l.387-1.028.324-.84 1.071-2.695zM66.228 30.437c-.715 0-1.373.284-1.975.85-.605.567-1.09 1.358-1.46 2.373-.328.902-.401 1.598-.22 2.084.18.485.605.728 1.273.728.22 0 .45-.023.691-.072.24-.048.491-.12.754-.215l.093-.264c.03-.088.07-.197.117-.328.121-.331.272-.723.453-1.176.178-.453.379-.938.597-1.457h-1.465l-.496 1.25h.43l-.054.152a9.938 9.938 0 0 1-.281.702 1.27 1.27 0 0 1-.209.062.991.991 0 0 1-.192.019c-.296 0-.48-.127-.553-.382-.07-.255-.023-.612.145-1.072.224-.614.514-1.096.87-1.442.357-.35.742-.523 1.154-.523.125 0 .261.02.406.059.147.039.317.099.51.184l.434-1.357a5.509 5.509 0 0 0-.546-.13 2.944 2.944 0 0 0-.476-.045M63.252 31.264c.08-.187.176-.414.291-.677h-.978l-.093.26-.096.27c-.061.17-.158.425-.29.764l-.01.03-1.068 2.788.334-4.112H60.01c-.72 1.85-1.236 3.164-1.547 3.942a63.026 63.026 0 0 1-.753 1.812h.983c.063-.161.148-.39.26-.682.202-.536.34-.904.42-1.104l.898-2.292-.206 2.504-.006.068c-.044.472-.095.974-.152 1.506h1.367a49.418 49.418 0 0 0 .227-.637l.116-.311.127-.33 1.294-3.275c.063-.161.134-.336.212-.524M71.904 34.604c-.538 0-.868-.183-.992-.55-.123-.366-.047-.931.232-1.697.299-.82.677-1.462 1.135-1.922.458-.46.948-.688 1.47-.688.192 0 .376.027.555.083.179.054.347.139.504.253l.629-1.888a3.202 3.202 0 0 0-.643-.197 3.64 3.64 0 0 0-.681-.064c-.94 0-1.81.393-2.612 1.175-.802.784-1.461 1.885-1.976 3.302-.488 1.339-.62 2.36-.396 3.063.223.703.792 1.054 1.707 1.054.238 0 .48-.021.725-.064.246-.043.492-.104.742-.186l.874-1.936a4.567 4.567 0 0 1-.67.199c-.208.042-.41.063-.603.063M76.971 33.378c-.205.562-.444.997-.717 1.305-.274.309-.557.462-.85.462-.31 0-.493-.139-.546-.419-.052-.28.023-.701.228-1.262.193-.53.425-.943.696-1.239.27-.295.552-.442.845-.442.302 0 .482.135.541.406.058.271-.007.667-.197 1.189m1.386-2.175c-.173-.498-.59-.747-1.254-.747-.637 0-1.239.276-1.803.83-.566.554-1.026 1.317-1.38 2.291-.333.914-.416 1.625-.25 2.133.165.508.567.762 1.203.762.662 0 1.277-.276 1.846-.826.568-.551 1.031-1.317 1.388-2.299.34-.931.423-1.646.25-2.144M127.82 32.96h-1.464l-.496 1.251h.432l-.055.15a11.83 11.83 0 0 1-.127.329c-.046.118-.099.242-.155.374a1.41 1.41 0 0 1-.208.062.994.994 0 0 1-.193.019c-.296 0-.48-.127-.55-.382-.073-.255-.025-.613.142-1.073.224-.614.514-1.095.87-1.442.357-.349.741-.522 1.154-.522.126 0 .261.02.407.058.145.039.315.1.51.185l.434-1.358a6.219 6.219 0 0 0-.546-.13 2.95 2.95 0 0 0-.478-.044c-.714 0-1.373.284-1.975.85-.602.567-1.088 1.358-1.457 2.372-.329.903-.403 1.599-.222 2.084.181.486.605.729 1.272.729.221 0 .452-.024.692-.073.241-.047.492-.12.755-.214l.092-.264.118-.328c.12-.331.271-.724.451-1.176.18-.453.38-.938.597-1.457M45.377 28.102c-.103.228-.273.58-.515 1.063-.069.138-.122.24-.156.31l-2.328 4.588 1.302-4.934c.034-.126.077-.272.132-.441.054-.168.12-.362.195-.586h-1.886c-.12.263-.24.51-.354.74-.113.232-.219.444-.317.633l-2.365 4.588 1.4-4.94a14.365 14.365 0 0 1 .328-1.021h-1.399l-1.99 7.358c-.065.227-.116.407-.155.538a6.048 6.048 0 0 1-.113.343h1.846l.283-.555c.086-.173.172-.337.253-.496l2.636-5.134-1.459 5.26a12.01 12.01 0 0 1-.274.924h1.897c.06-.13.13-.275.211-.44.082-.163.18-.35.291-.556l3.878-7.242h-1.34zM47.83 30.587l-.313.501-.149.232-.87 1.346.222-1.477c.012-.077.026-.159.043-.247.014-.086.038-.206.071-.355h-1.199l-.243 3.548-.488 1.234a22.31 22.31 0 0 1-.138.346l-.253.626h1.092l.043-.127c.065-.192.11-.324.136-.396l.047-.123c.02-.047.032-.078.037-.092l.561-1.443 2.533-3.573H47.83zM57.26 31.61c.149-.383.282-.724.4-1.023h-1.48a23.106 23.106 0 0 1-.419.771l-1.623 2.925.768-3.115c.03-.124.059-.233.084-.325l.068-.256h-1.45c-.463 1.18-.9 2.257-1.305 3.232a83.14 83.14 0 0 1-1.093 2.521h.916a95.607 95.607 0 0 1 .612-1.536l1.164-2.808-.88 3.73c-.028.118-.056.23-.082.332l-.078.282h.852c.048-.095.099-.193.153-.293.055-.099.129-.233.226-.403l2.094-3.682-.322.843-.208.544-.793 2.002a22.375 22.375 0 0 1-.411.989h1.025c.06-.18.118-.348.172-.504.054-.157.104-.294.148-.416l.073-.196.062-.16 1.265-3.286c.01-.03.03-.087.063-.169M50.862 33.378c-.205.562-.444.997-.718 1.305-.274.309-.557.462-.85.462-.31 0-.492-.139-.545-.419-.053-.28.023-.701.228-1.262.193-.53.424-.943.696-1.239.27-.295.551-.442.843-.442.304 0 .484.135.543.406.058.271-.007.667-.197 1.189m1.385-2.175c-.173-.498-.59-.747-1.253-.747-.637 0-1.24.276-1.805.83-.564.554-1.024 1.317-1.379 2.291-.332.914-.416 1.625-.25 2.133.166.508.567.762 1.204.762.662 0 1.277-.276 1.846-.826.568-.551 1.031-1.317 1.388-2.299.34-.931.421-1.646.25-2.144M127.982 33.84c-.38.96-.72 1.794-1.023 2.5h2.812l.527-1.337a6.5 6.5 0 0 1-.99.067c-.168 0-.31-.003-.423-.012a2.416 2.416 0 0 1-.311-.042l.029-.09a6.962 6.962 0 0 1 .188-.497c.046-.113.096-.23.15-.35h.992c.136 0 .235.003.299.006s.123.008.178.017l.538-1.363a5.094 5.094 0 0 1-.585.034h-.902l.04-.11c.032-.09.069-.188.112-.295.04-.106.11-.27.202-.488l1.105-.004c.038 0 .109.003.212.01.105.007.224.017.359.028l.525-1.327h-2.791a192.767 192.767 0 0 1-1.243 3.253M119.645 35.056c-.145.01-.291.015-.438.015a3.865 3.865 0 0 1-.517-.043 48.062 48.062 0 0 1 .222-.646 62.484 62.484 0 0 1 1.525-3.795h-1.133c-.45 1.208-.865 2.292-1.243 3.253-.38.96-.72 1.794-1.024 2.5h2.587l.53-1.337a8.643 8.643 0 0 1-.508.053M121.556 34.773c.042-.116.086-.23.132-.345.047-.112.097-.227.15-.347h.992c.136 0 .235.001.299.004.064.002.124.008.179.016l.537-1.361a5.094 5.094 0 0 1-.584.033h-.903l.04-.11a12.113 12.113 0 0 1 .316-.784l1.104-.003c.037 0 .108.002.213.01.104.006.223.016.358.028l.524-1.328h-2.791a176.958 176.958 0 0 1-1.243 3.254c-.378.96-.72 1.793-1.023 2.5h2.812l.527-1.338c-.15.022-.307.04-.473.051a7.801 7.801 0 0 1-.94.005 2.195 2.195 0 0 1-.31-.043l.029-.09c.01-.032.03-.084.055-.152M108.74 34.604c-.538 0-.869-.183-.992-.55-.124-.366-.047-.931.232-1.697.3-.82.678-1.462 1.136-1.922.458-.46.948-.688 1.47-.688.19 0 .375.027.554.083.18.054.347.139.505.253l.627-1.888a3.154 3.154 0 0 0-.642-.197 3.642 3.642 0 0 0-.682-.064c-.938 0-1.809.393-2.61 1.175-.804.784-1.462 1.885-1.978 3.302-.487 1.339-.62 2.36-.396 3.063.223.703.793 1.054 1.708 1.054.237 0 .48-.021.725-.064s.492-.104.741-.186l.876-1.936a4.552 4.552 0 0 1-.67.199 3.037 3.037 0 0 1-.604.063M103.222 31.088l-.15.232-.871 1.346.223-1.477.043-.247a8.1 8.1 0 0 1 .07-.355H98.44l-.53 1.332c.133-.022.285-.04.46-.053.175-.013.37-.022.587-.027a170.403 170.403 0 0 1-1.033 2.647 65.988 65.988 0 0 1-.767 1.855h1.12l.11-.311.178-.487.2-.547c.069-.18.138-.355.207-.53l1.05-2.627h.12a4.444 4.444 0 0 1 .833.076l.33-.83-.21 3.05-.486 1.234-.14.346c-.085.214-.17.422-.252.626h1.09a3.516 3.516 0 0 1 .228-.646c.02-.047.032-.078.037-.092l.56-1.443 2.534-3.573h-1.132l-.312.5M113.807 33.378c-.205.562-.444.997-.717 1.305-.273.309-.557.462-.85.462-.31 0-.493-.139-.544-.419-.054-.28.022-.701.227-1.262.193-.53.424-.943.695-1.239.271-.295.552-.442.845-.442.302 0 .483.135.542.406.058.271-.008.667-.198 1.189m1.386-2.175c-.173-.498-.59-.747-1.252-.747-.639 0-1.24.276-1.805.83-.566.554-1.025 1.317-1.379 2.291-.333.914-.417 1.625-.25 2.133.164.508.566.762 1.203.762.662 0 1.277-.276 1.846-.826.567-.551 1.03-1.317 1.387-2.299.34-.931.423-1.646.25-2.144M116.828 35.056a6.46 6.46 0 0 1-.44.015 3.067 3.067 0 0 1-.516-.043 28.006 28.006 0 0 1 .222-.646 60.097 60.097 0 0 1 1.525-3.795h-1.134c-.45 1.208-.864 2.292-1.242 3.253-.38.96-.721 1.794-1.024 2.5h2.587l.53-1.337a8.731 8.731 0 0 1-.508.053M97.969 31.052c.07-.172.137-.327.197-.465h-1.12c-.432 1.16-.841 2.228-1.227 3.204a92.725 92.725 0 0 1-1.046 2.55h1.12a129.526 129.526 0 0 1 .71-1.867l1.07-2.695c.127-.314.225-.556.296-.727M88.105 31.61c.146-.383.28-.724.4-1.023h-1.48c-.059.113-.12.23-.186.35-.064.12-.142.261-.233.421l-1.624 2.925.767-3.115.084-.325c.023-.09.047-.177.07-.256h-1.45a171.423 171.423 0 0 1-1.306 3.232 83.14 83.14 0 0 1-1.094 2.521h.916l.363-.918c.096-.242.18-.448.25-.618l1.164-2.808-.88 3.73a9.537 9.537 0 0 1-.084.332l-.075.282h.85a17.59 17.59 0 0 1 .38-.696l2.094-3.682c-.094.243-.202.524-.323.843l-.207.544-.794 2.002a22.242 22.242 0 0 1-.411.989h1.025l.172-.504a28.025 28.025 0 0 1 .222-.612l.06-.16 1.266-3.286.064-.169M91.089 33.79l.792-2.005a34.087 34.087 0 0 1 .503-1.198h-1.107a15.44 15.44 0 0 1-.143.408c-.047.13-.1.27-.156.418l-.25.643-.794 2.017c-.145.371-.296.64-.45.805a.716.716 0 0 1-.532.25c-.181 0-.29-.07-.327-.207-.038-.137-.004-.35.1-.635l.064-.175.043-.106.88-2.23c.075-.197.155-.397.238-.598.084-.2.167-.399.25-.59l-1.107.004a140.34 140.34 0 0 1-.972 2.547c-.361.917-.566 1.445-.616 1.583-.201.55-.222.98-.062 1.288.158.308.482.463.97.463a2.266 2.266 0 0 0 1.972-1.097c.153-.247.342-.658.565-1.233.059-.153.105-.27.139-.353M83.37 31.61c.148-.383.282-.724.4-1.023h-1.48a25.704 25.704 0 0 1-.42.771l-1.623 2.925.769-3.115c.03-.124.059-.233.083-.325l.069-.256h-1.45a171.423 171.423 0 0 1-1.305 3.232 85.753 85.753 0 0 1-1.093 2.521h.915a132.169 132.169 0 0 1 .613-1.536l1.164-2.808-.88 3.73a9.537 9.537 0 0 1-.083.332l-.077.282h.85a17.39 17.39 0 0 1 .38-.696l2.095-3.682c-.093.243-.202.524-.323.843-.122.321-.19.501-.208.544l-.793 2.002a17.815 17.815 0 0 1-.411.99h1.025a44.658 44.658 0 0 1 .394-1.117l.06-.16 1.266-3.286a8.42 8.42 0 0 1 .064-.169M96.176 31.264c.078-.187.176-.414.292-.677h-.98c-.021.056-.053.143-.094.26-.04.118-.072.208-.094.27-.062.17-.16.425-.29.764l-.01.03-1.068 2.788.333-4.112h-1.332a449.513 449.513 0 0 1-1.547 3.942 66.662 66.662 0 0 1-.752 1.812h.984c.06-.161.149-.39.259-.682.2-.536.34-.904.419-1.104l.898-2.292-.204 2.504-.007.068c-.044.472-.094.974-.151 1.506H94.2l.12-.337a24.63 24.63 0 0 1 .222-.611l.128-.33 1.292-3.275c.063-.161.134-.336.214-.524M78.864 7.639l-5.142 11.549h6.937L85.8 7.638h3.479l2.782-6.247H78.167l-2.782 6.248zM112.185 6.44h.765c.326 0 .747.05.904.292.158.245.03.657-.106.96a2.424 2.424 0 0 1-.906 1.09c-.398.254-.852.378-1.388.378h-.48l1.21-2.72zm-5.676 12.747l2.107-4.73.427 4.73h7.685l-1.538-7.044c1.016-.188 1.983-.657 2.88-1.4.99-.816 1.776-1.868 2.337-3.127.878-1.974.902-3.526.069-4.613-.82-1.07-2.436-1.612-4.804-1.612h-8.05l-7.925 17.796h6.812zM60.998 10.651c.37.891 1.19 1.514 2.451 1.854l.842.2c.933.207 1.114.44 1.147.506.01.02.028.054-.01.138-.091.206-.258.368-.509.495-.665.337-1.722.247-2.602-.189-.54-.268-1.113-.702-1.704-1.29l-.244-.244-4.566 5.323.271.205a9.67 9.67 0 0 0 2.86 1.492 10.71 10.71 0 0 0 3.292.496c2.267 0 4.411-.623 6.373-1.85 1.965-1.233 3.401-2.845 4.269-4.792.551-1.24.653-2.323.303-3.22-.358-.919-1.134-1.532-2.312-1.823a25.415 25.415 0 0 1-.577-.14c-1.513-.352-1.776-.67-1.819-.835.084-.186.238-.332.471-.443.256-.123.582-.186.967-.186.522 0 1.018.107 1.477.318.464.211.889.523 1.265.926l.242.261 4.359-5.03-.289-.203a8.83 8.83 0 0 0-2.482-1.219 9.79 9.79 0 0 0-2.859-.4 11.5 11.5 0 0 0-6.189 1.782c-1.896 1.184-3.284 2.746-4.128 4.64-.564 1.264-.664 2.351-.299 3.228M97.865 19.188l2.355-5.288h-5.61l.517-1.161h4.96l2.235-5.018H97.36l.464-1.042h5.469l2.355-5.288H93.367l-7.924 17.796zM136.261 1.39l-2.647 5.945c-.35.787-.62 1.425-.809 1.912l-.03.078-1.218-7.934h-6.579l-7.925 17.797h6.717l2.84-6.378c.243-.546.448-1.042.614-1.484l1.197 7.862h6.633L142.98 1.39h-6.718zM54.853 19.188l2.355-5.288h-5.61l.517-1.161h4.962L59.31 7.72h-4.96l.462-1.042h5.469l2.355-5.288h-12.28L42.43 19.187zM37.938 1.405l-12.33 27.311-.063.14 5.179 10.176L47.381 1.405zM26.019 1.321L13.587 28.858l5.276 10.368 16.78-37.905zM0 1.405l12.562 24.713L23.553 1.405z"/>
    </g>
</svg>
